<svg xmlns="http://www.w3.org/2000/svg" viewBox="0 0 210 297">
  <!-- Left vertical part -->
  <path
    fill="#ffffff"
    d="M14.1 198.6h57.3s12.5 0 19.2-7.3v-25.5s-1.7-3-4-.03c-2.3 2.93-7.1 10.3-16.9 10.5-9.8.15-33.4 0-33.4 0L35.7 66l30.4-.3s21.8-1 28.6 28.2h22.9s-.7-44.7-46.9-50.8l-58.2.5z"
  />
  <!-- R shape with hollow center -->
  <path
    fill="#ffffff"
    d="M95.4 100.5V254.4h22.1l.2-65.8 27.9.2 31.2 65.8h26.6l-34.4-68.6s30.7-10.1 28.6-43.4c-2.2-33.2-29.4-42.5-39-42.5zm22.3 19.2h33c12.5 0 22 6.6 22 21.5s-9.7 21.6-22.2 21.6h-32.8z"
  />
</svg>
